<svg width="10" height="10" viewBox="0 0 10 10" fill="none" xmlns="http://www.w3.org/2000/svg">
<path d="M0.25 3.5C0.25 3.02143 0.250532 2.68779 0.284393 2.43608C0.317281 2.19161 0.377432 2.06212 0.469777 1.96978C0.562121 1.87743 0.691613 1.81728 0.936081 1.78439C1.18779 1.75053 1.52143 1.75 2 1.75H8C8.47857 1.75 8.81221 1.75053 9.06392 1.78439C9.30839 1.81728 9.43788 1.87743 9.53022 1.96978C9.62257 2.06212 9.68272 2.19161 9.71561 2.43608C9.74947 2.68779 9.75 3.02143 9.75 3.5C9.75 3.62478 9.74947 3.69339 9.74309 3.74106C9.74301 3.74166 9.74293 3.74224 9.74285 3.74282C9.74221 3.74291 9.74157 3.743 9.7409 3.74308C9.69315 3.74948 9.6245 3.75 9.5 3.75H0.5C0.375221 3.75 0.306612 3.74947 0.25894 3.74309C0.258342 3.74301 0.257756 3.74293 0.257182 3.74285C0.257093 3.74221 0.257005 3.74157 0.256916 3.7409C0.250525 3.69315 0.25 3.6245 0.25 3.5ZM0.469777 9.53022C0.377432 9.43788 0.317281 9.30839 0.284393 9.06392C0.250532 8.81221 0.25 8.47857 0.25 8V5.5C0.25 5.3755 0.250525 5.30685 0.256916 5.2591C0.257005 5.25843 0.257093 5.25779 0.257182 5.25715C0.257756 5.25707 0.258342 5.25699 0.25894 5.25691C0.306612 5.25053 0.375221 5.25 0.5 5.25H9.5C9.6245 5.25 9.69315 5.25052 9.7409 5.25692C9.74157 5.257 9.74221 5.25709 9.74285 5.25718C9.74293 5.25776 9.74301 5.25834 9.74309 5.25894C9.74947 5.30661 9.75 5.37522 9.75 5.5V8C9.75 8.47857 9.74947 8.81221 9.71561 9.06392C9.68272 9.30839 9.62257 9.43788 9.53022 9.53022C9.43788 9.62257 9.30839 9.68272 9.06392 9.71561C8.81221 9.74947 8.47857 9.75 8 9.75H2C1.52143 9.75 1.18779 9.74947 0.936081 9.71561C0.691613 9.68272 0.562121 9.62257 0.469777 9.53022Z" fill="#002C4C" stroke="#002C4C" stroke-width="0.5"/>
<path d="M2.5 0.5V2V0.5ZM7.5 0.5V2V0.5Z" fill="#002C4C"/>
<path d="M2.5 0.5V2M7.5 0.5V2" stroke="#002C4C" stroke-linecap="round"/>
</svg>
